<svg width="288" height="464" viewBox="0 0 288 464" fill="none" xmlns="http://www.w3.org/2000/svg">
<g filter="url(#filter0_d_229_134)">
<rect x="4" width="280" height="456" rx="20" fill="url(#paint0_linear_229_134)"/>
</g>
<rect x="26.939" y="18.5876" width="235.098" height="416.921" fill="url(#paint1_linear_229_134)" stroke="white"/>
<line y1="-0.5" x2="237.442" y2="-0.5" transform="matrix(0.999994 -0.00344119 0.00296619 0.999996 25.6534 40.2117)" stroke="white"/>
<line y1="-0.5" x2="237.442" y2="-0.5" transform="matrix(0.999994 -0.00344119 0.00296619 0.999996 24.9067 412.584)" stroke="white"/>
<mask id="path-5-inside-1_229_134" fill="white">
<path fill-rule="evenodd" clip-rule="evenodd" d="M65.1517 250.04L142.785 329.556L214.488 258.857L214.487 258.856L221.907 251.541C241.57 232.153 241.625 200.165 222.335 180.406C203.044 160.647 171.219 160.094 151.555 179.482L144.136 186.798L136.855 179.34C117.564 159.581 85.7378 159.525 66.0744 178.913C46.411 198.301 45.8609 230.281 65.1517 250.04Z"/>
</mask>
<path d="M142.785 329.556L142.069 330.255L142.771 330.974L143.487 330.268L142.785 329.556ZM65.1517 250.04L64.4361 250.738L64.4361 250.738L65.1517 250.04ZM214.488 258.857L215.19 259.569L215.897 258.872L215.205 258.16L214.488 258.857ZM214.487 258.856L213.785 258.144L213.078 258.841L213.77 259.553L214.487 258.856ZM221.907 251.541L221.204 250.829L221.204 250.829L221.907 251.541ZM222.335 180.406L223.05 179.708L223.05 179.708L222.335 180.406ZM151.555 179.482L152.257 180.194L152.257 180.194L151.555 179.482ZM144.136 186.798L143.421 187.496L144.123 188.215L144.838 187.51L144.136 186.798ZM136.855 179.34L136.14 180.039L136.855 179.34ZM66.0744 178.913L66.7765 179.625L66.7765 179.625L66.0744 178.913ZM143.5 328.858L65.8672 249.341L64.4361 250.738L142.069 330.255L143.5 328.858ZM213.786 258.145L142.083 328.844L143.487 330.268L215.19 259.569L213.786 258.145ZM213.77 259.553L213.771 259.554L215.205 258.16L215.204 258.159L213.77 259.553ZM221.204 250.829L213.785 258.144L215.189 259.568L222.609 252.253L221.204 250.829ZM221.619 181.105C240.532 200.476 240.47 231.833 221.204 250.829L222.609 252.253C242.67 232.472 242.719 199.854 223.05 179.708L221.619 181.105ZM152.257 180.194C171.52 161.202 202.709 161.736 221.619 181.105L223.05 179.708C203.379 159.559 170.918 158.987 150.853 178.77L152.257 180.194ZM144.838 187.51L152.257 180.194L150.853 178.77L143.434 186.086L144.838 187.51ZM136.14 180.039L143.421 187.496L144.852 186.099L137.571 178.642L136.14 180.039ZM66.7765 179.625C86.0517 160.62 117.242 160.683 136.14 180.039L137.571 178.642C117.886 158.48 85.4238 158.43 65.3723 178.201L66.7765 179.625ZM65.8672 249.341C46.9672 229.982 47.4986 198.633 66.7765 179.625L65.3723 178.201C45.3234 197.969 44.7547 230.579 64.4361 250.738L65.8672 249.341Z" fill="white" mask="url(#path-5-inside-1_229_134)"/>
<mask id="path-7-inside-2_229_134" fill="white">
<path fill-rule="evenodd" clip-rule="evenodd" d="M89.6696 249.421L144.443 305.524L195.192 255.485L195.191 255.485L200.264 250.483C214.279 236.664 214.495 214.045 200.745 199.961C186.995 185.878 164.488 185.664 150.472 199.483L145.399 204.485L140.418 199.383C126.67 185.301 104.164 185.087 90.1504 198.905C76.1365 212.722 75.9213 235.339 89.6696 249.421Z"/>
</mask>
<path d="M144.443 305.524L143.727 306.222L144.429 306.941L145.145 306.236L144.443 305.524ZM89.6696 249.421L90.3852 248.723L90.3852 248.723L89.6696 249.421ZM195.192 255.485L195.894 256.198L196.602 255.499L195.908 254.787L195.192 255.485ZM195.191 255.485L194.489 254.773L193.781 255.471L194.475 256.183L195.191 255.485ZM200.264 250.483L199.562 249.771L199.562 249.771L200.264 250.483ZM200.745 199.961L201.461 199.263L201.461 199.263L200.745 199.961ZM150.472 199.483L151.175 200.195L151.175 200.195L150.472 199.483ZM145.399 204.485L144.684 205.183L145.386 205.903L146.101 205.197L145.399 204.485ZM140.418 199.383L141.134 198.685L141.134 198.685L140.418 199.383ZM90.1504 198.905L89.4483 198.193L89.4483 198.193L90.1504 198.905ZM145.158 304.825L90.3852 248.723L88.9541 250.12L143.727 306.222L145.158 304.825ZM194.49 254.773L143.741 304.812L145.145 306.236L195.894 256.198L194.49 254.773ZM194.475 256.183L194.476 256.184L195.908 254.787L195.907 254.787L194.475 256.183ZM199.562 249.771L194.489 254.773L195.893 256.197L200.966 251.195L199.562 249.771ZM200.03 200.66C213.395 214.349 213.185 236.338 199.562 249.771L200.966 251.195C215.373 236.989 215.595 213.74 201.461 199.263L200.03 200.66ZM151.175 200.195C164.795 186.765 186.667 186.973 200.03 200.66L201.461 199.263C187.324 184.783 164.18 184.563 149.77 198.771L151.175 200.195ZM146.101 205.197L151.175 200.195L149.77 198.771L144.697 203.773L146.101 205.197ZM139.703 200.082L144.684 205.183L146.115 203.786L141.134 198.685L139.703 200.082ZM90.8525 199.617C104.472 186.188 126.342 186.396 139.703 200.082L141.134 198.685C126.998 184.206 103.857 183.986 89.4483 198.193L90.8525 199.617ZM90.3852 248.723C77.0213 235.035 77.2305 213.048 90.8525 199.617L89.4483 198.193C75.0425 212.397 74.8213 235.644 88.9541 250.12L90.3852 248.723Z" fill="white" mask="url(#path-7-inside-2_229_134)"/>
<line x1="143.614" y1="53.3499" x2="143.614" y2="38.9999" stroke="white"/>
<line x1="143.614" y1="138.096" x2="143.614" y2="123.746" stroke="white"/>
<line x1="143.614" y1="106.136" x2="143.614" y2="61.012" stroke="white"/>
<line x1="143.614" y1="200.787" x2="143.614" y2="155.663" stroke="white"/>
<line x1="143.614" y1="263.563" x2="143.614" y2="249.213" stroke="white"/>
<line x1="143.614" y1="238.208" x2="143.614" y2="208.492" stroke="white"/>
<line x1="143.614" y1="348.309" x2="143.614" y2="333.959" stroke="white"/>
<line x1="143.614" y1="316.349" x2="143.614" y2="271.225" stroke="white"/>
<line x1="143.614" y1="411" x2="143.614" y2="365.876" stroke="white"/>
<defs>
<filter id="filter0_d_229_134" x="0" y="0" width="288" height="464" filterUnits="userSpaceOnUse" color-interpolation-filters="sRGB">
<feFlood flood-opacity="0" result="BackgroundImageFix"/>
<feColorMatrix in="SourceAlpha" type="matrix" values="0 0 0 0 0 0 0 0 0 0 0 0 0 0 0 0 0 0 127 0" result="hardAlpha"/>
<feOffset dy="4"/>
<feGaussianBlur stdDeviation="2"/>
<feComposite in2="hardAlpha" operator="out"/>
<feColorMatrix type="matrix" values="0 0 0 0 0 0 0 0 0 0 0 0 0 0 0 0 0 0 0.25 0"/>
<feBlend mode="normal" in2="BackgroundImageFix" result="effect1_dropShadow_229_134"/>
<feBlend mode="normal" in="SourceGraphic" in2="effect1_dropShadow_229_134" result="shape"/>
</filter>
<linearGradient id="paint0_linear_229_134" x1="144" y1="0" x2="144" y2="456" gradientUnits="userSpaceOnUse">
<stop offset="0.620038" stop-color="#2A0B5C"/>
<stop offset="1" stop-color="#5917C2"/>
</linearGradient>
<linearGradient id="paint1_linear_229_134" x1="144.488" y1="18.0876" x2="144.488" y2="436.008" gradientUnits="userSpaceOnUse">
<stop stop-color="#190737"/>
<stop offset="1" stop-color="#46149D"/>
</linearGradient>
</defs>
</svg>
