<svg width="656" height="118" viewBox="0 0 656 118" fill="none" xmlns="http://www.w3.org/2000/svg">
<rect x="540" y="39" width="100" height="50" fill="#8812AF"/>
<rect x="17" y="39" width="100" height="50" fill="#8812AF"/>
<circle cx="16.5" cy="63.5" r="16.5" fill="url(#paint0_linear_293_70)"/>
<circle cx="639.5" cy="63.5" r="16.5" fill="url(#paint1_linear_293_70)"/>
<path d="M27 59C27 26.4152 53.4152 0 86 0H569C601.585 0 628 26.4152 628 59C628 91.5848 601.585 118 569 118H86C53.4152 118 27 91.5848 27 59Z" fill="url(#paint2_linear_293_70)"/>
<path d="M27 59C27 26.4152 53.4152 0 86 0H569C601.585 0 628 26.4152 628 59C628 91.5848 601.585 118 569 118H86C53.4152 118 27 91.5848 27 59Z" fill="url(#paint3_linear_293_70)"/>
<defs>
<linearGradient id="paint0_linear_293_70" x1="16.5" y1="43.0847" x2="16.5" y2="91.3263" gradientUnits="userSpaceOnUse">
<stop offset="0.15" stop-color="#8812AF"/>
<stop offset="0.5" stop-color="#E2BC3F"/>
<stop offset="0.85" stop-color="#8812AF"/>
</linearGradient>
<linearGradient id="paint1_linear_293_70" x1="639.5" y1="43.0847" x2="639.5" y2="91.3263" gradientUnits="userSpaceOnUse">
<stop offset="0.15" stop-color="#8812AF"/>
<stop offset="0.5" stop-color="#E2BC3F"/>
<stop offset="0.85" stop-color="#8812AF"/>
</linearGradient>
<linearGradient id="paint2_linear_293_70" x1="327.5" y1="0" x2="327.5" y2="118" gradientUnits="userSpaceOnUse">
<stop offset="0.0920151" stop-color="#8812AF"/>
<stop offset="0.500894" stop-color="#F9B219"/>
<stop offset="0.941408" stop-color="#8812AF"/>
</linearGradient>
<linearGradient id="paint3_linear_293_70" x1="327.5" y1="0" x2="327.5" y2="118" gradientUnits="userSpaceOnUse">
<stop offset="0.0920151" stop-color="#8812AF"/>
<stop offset="0.500894" stop-color="#F9B219"/>
<stop offset="0.941408" stop-color="#8812AF"/>
</linearGradient>
</defs>
</svg>
