<svg width="288" height="464" viewBox="0 0 288 464" fill="none" xmlns="http://www.w3.org/2000/svg">
<g filter="url(#filter0_d_229_96)">
<rect x="4" width="280" height="456" rx="20" fill="url(#paint0_linear_229_96)"/>
</g>
<rect x="26.939" y="18.5876" width="235.098" height="416.921" fill="url(#paint1_linear_229_96)" stroke="white"/>
<line y1="-0.5" x2="237.442" y2="-0.5" transform="matrix(0.999994 -0.00344119 0.00296619 0.999996 25.6534 40.2117)" stroke="white"/>
<line y1="-0.5" x2="237.442" y2="-0.5" transform="matrix(0.999994 -0.00344119 0.00296619 0.999996 24.9067 412.584)" stroke="white"/>
<path d="M243.411 230.851C243.411 260.428 219.681 284.396 190.42 284.396C161.159 284.396 137.429 260.428 137.429 230.851C137.429 201.274 161.159 177.307 190.42 177.307C219.681 177.307 243.411 201.274 243.411 230.851Z" stroke="white"/>
<mask id="path-6-inside-1_229_96" fill="white">
<path fill-rule="evenodd" clip-rule="evenodd" d="M203.222 163.29C189.333 159.173 174.048 158.751 158.869 162.86C116.211 174.409 90.542 217.371 101.534 258.82C112.527 300.269 156.019 324.508 198.676 312.96C213.855 308.85 226.884 300.763 236.874 290.182C224.421 311.332 203.735 327.951 177.851 334.958C126.518 348.855 74.1801 319.686 60.9518 269.806C47.7236 219.927 78.614 168.227 129.948 154.33C155.831 147.322 181.97 151.264 203.222 163.29Z"/>
</mask>
<path d="M203.222 163.29L202.935 164.25L203.716 162.417L203.222 163.29ZM236.874 290.182L237.734 290.688L236.15 289.495L236.874 290.182ZM159.125 163.827C174.123 159.767 189.219 160.185 202.935 164.25L203.509 162.33C189.447 158.162 173.974 157.735 158.613 161.894L159.125 163.827ZM102.5 258.559C91.6561 217.671 116.973 175.238 159.125 163.827L158.613 161.894C115.45 173.579 89.4279 217.071 100.569 259.081L102.5 258.559ZM198.42 311.993C156.268 323.405 113.343 299.446 102.5 258.559L100.569 259.081C111.711 301.091 155.77 325.611 198.933 313.926L198.42 311.993ZM236.15 289.495C226.284 299.945 213.417 307.933 198.42 311.993L198.933 313.926C214.294 309.768 227.483 301.582 237.598 290.869L236.15 289.495ZM236.015 289.676C223.692 310.605 203.219 327.054 177.595 333.991L178.108 335.924C204.25 328.847 225.15 312.059 237.734 290.688L236.015 289.676ZM177.595 333.991C126.767 347.751 74.9965 318.863 61.9171 269.545L59.9866 270.068C73.3636 320.508 126.269 349.958 178.108 335.924L177.595 333.991ZM61.9171 269.545C48.8377 220.227 79.3758 169.056 130.204 155.296L129.691 153.363C77.8522 167.397 46.6096 219.628 59.9866 270.068L61.9171 269.545ZM130.204 155.296C155.828 148.359 181.699 152.263 202.728 164.162L203.716 162.417C182.242 150.266 155.834 146.286 129.691 153.363L130.204 155.296Z" fill="white" mask="url(#path-6-inside-1_229_96)"/>
<line x1="148.773" y1="136.427" x2="148.773" y2="71.0877" stroke="white"/>
<line x1="148.185" y1="412" x2="148.185" y2="346.661" stroke="white"/>
<line x1="148.773" y1="54.4868" x2="148.773" y2="38.9999" stroke="white"/>
<defs>
<filter id="filter0_d_229_96" x="0" y="0" width="288" height="464" filterUnits="userSpaceOnUse" color-interpolation-filters="sRGB">
<feFlood flood-opacity="0" result="BackgroundImageFix"/>
<feColorMatrix in="SourceAlpha" type="matrix" values="0 0 0 0 0 0 0 0 0 0 0 0 0 0 0 0 0 0 127 0" result="hardAlpha"/>
<feOffset dy="4"/>
<feGaussianBlur stdDeviation="2"/>
<feComposite in2="hardAlpha" operator="out"/>
<feColorMatrix type="matrix" values="0 0 0 0 0 0 0 0 0 0 0 0 0 0 0 0 0 0 0.25 0"/>
<feBlend mode="normal" in2="BackgroundImageFix" result="effect1_dropShadow_229_96"/>
<feBlend mode="normal" in="SourceGraphic" in2="effect1_dropShadow_229_96" result="shape"/>
</filter>
<linearGradient id="paint0_linear_229_96" x1="144" y1="0" x2="144" y2="456" gradientUnits="userSpaceOnUse">
<stop offset="0.620038" stop-color="#2A0B5C"/>
<stop offset="1" stop-color="#5917C2"/>
</linearGradient>
<linearGradient id="paint1_linear_229_96" x1="144.488" y1="18.0876" x2="144.488" y2="436.008" gradientUnits="userSpaceOnUse">
<stop stop-color="#190737"/>
<stop offset="1" stop-color="#46149D"/>
</linearGradient>
</defs>
</svg>
