<svg width="657" height="118" viewBox="0 0 657 118" fill="none" xmlns="http://www.w3.org/2000/svg">
<circle cx="640.5" cy="55.5" r="16.5" fill="url(#paint0_linear_294_77)"/>
<rect x="536" y="31" width="100" height="50" fill="url(#paint1_linear_294_77)"/>
<rect x="13" y="31" width="100" height="50" fill="url(#paint2_linear_294_77)"/>
<circle cx="16.5" cy="55.5" r="16.5" fill="url(#paint3_linear_294_77)"/>
<path d="M25 59C25 26.4152 51.4152 0 84 0H567C599.585 0 626 26.4152 626 59C626 91.5848 599.585 118 567 118H84C51.4152 118 25 91.5848 25 59Z" fill="url(#paint4_linear_294_77)"/>
<path d="M25 59C25 26.4152 51.4152 0 84 0H567C599.585 0 626 26.4152 626 59C626 91.5848 599.585 118 567 118H84C51.4152 118 25 91.5848 25 59Z" fill="url(#paint5_linear_294_77)"/>
<defs>
<linearGradient id="paint0_linear_294_77" x1="640.5" y1="39" x2="640.5" y2="72" gradientUnits="userSpaceOnUse">
<stop offset="0.143759" stop-color="#3E1089"/>
<stop offset="0.5" stop-color="#682DC8"/>
<stop offset="1" stop-color="#5917C2"/>
</linearGradient>
<linearGradient id="paint1_linear_294_77" x1="586" y1="31" x2="586" y2="81" gradientUnits="userSpaceOnUse">
<stop offset="0.143759" stop-color="#3E1089"/>
<stop offset="0.5" stop-color="#682DC8"/>
<stop offset="1" stop-color="#5917C2"/>
</linearGradient>
<linearGradient id="paint2_linear_294_77" x1="63" y1="31" x2="63" y2="81" gradientUnits="userSpaceOnUse">
<stop offset="0.143759" stop-color="#3E1089"/>
<stop offset="0.5" stop-color="#682DC8"/>
<stop offset="1" stop-color="#5917C2"/>
</linearGradient>
<linearGradient id="paint3_linear_294_77" x1="16.5" y1="39" x2="16.5" y2="72" gradientUnits="userSpaceOnUse">
<stop offset="0.143759" stop-color="#3E1089"/>
<stop offset="0.5" stop-color="#682DC8"/>
<stop offset="1" stop-color="#5917C2"/>
</linearGradient>
<linearGradient id="paint4_linear_294_77" x1="325.5" y1="0" x2="325.5" y2="118" gradientUnits="userSpaceOnUse">
<stop offset="0.143759" stop-color="#3E1089"/>
<stop offset="0.5" stop-color="#682DC8"/>
<stop offset="1" stop-color="#5917C2"/>
</linearGradient>
<linearGradient id="paint5_linear_294_77" x1="325.5" y1="0" x2="325.5" y2="118" gradientUnits="userSpaceOnUse">
<stop offset="0.143759" stop-color="#3E1089"/>
<stop offset="0.5" stop-color="#682DC8"/>
<stop offset="1" stop-color="#5917C2"/>
</linearGradient>
</defs>
</svg>
