<svg width="257" height="423" viewBox="0 0 257 423" fill="none" xmlns="http://www.w3.org/2000/svg">
<g filter="url(#filter0_d_132_72)">
<rect x="4" width="248.653" height="415" rx="20" fill="url(#paint0_linear_132_72)" shape-rendering="crispEdges"/>
</g>
<rect x="24.4269" y="16.9614" width="208.666" height="379.344" fill="url(#paint1_linear_132_72)" stroke="white"/>
<line y1="-0.5" x2="210.86" y2="-0.5" transform="matrix(0.999994 -0.00352659 0.00289436 0.999996 23.2292 36.596)" stroke="white"/>
<line y1="-0.5" x2="210.86" y2="-0.5" transform="matrix(0.999994 -0.00352659 0.00289436 0.999996 22.5662 375.488)" stroke="white"/>
<mask id="path-5-inside-1_132_72" fill="white">
<path fill-rule="evenodd" clip-rule="evenodd" d="M56.1254 228.98L126.787 301L192.259 236.762L192.258 236.761L198.806 230.337C216.886 212.598 217.163 183.561 199.424 165.482C181.685 147.402 152.648 147.126 134.569 164.865L128.021 171.289L121.598 164.743C103.859 146.663 74.8223 146.387 56.7427 164.125C38.663 181.864 38.3866 210.901 56.1254 228.98Z"/>
</mask>
<path d="M126.787 301L126.073 301.7L126.773 302.414L127.487 301.714L126.787 301ZM56.1254 228.98L56.8392 228.28L56.1254 228.98ZM192.259 236.762L192.96 237.476L193.67 236.779L192.976 236.065L192.259 236.762ZM192.258 236.761L191.558 236.048L190.847 236.745L191.542 237.459L192.258 236.761ZM198.806 230.337L198.106 229.623L198.806 230.337ZM199.424 165.482L200.138 164.781L199.424 165.482ZM134.569 164.865L135.269 165.578H135.269L134.569 164.865ZM128.021 171.289L127.307 171.989L128.007 172.703L128.721 172.003L128.021 171.289ZM121.598 164.743L120.884 165.443L121.598 164.743ZM56.7427 164.125L57.443 164.839L56.7427 164.125ZM127.501 300.3L56.8392 228.28L55.4116 229.681L126.073 301.7L127.501 300.3ZM191.559 236.048L126.087 300.286L127.487 301.714L192.96 237.476L191.559 236.048ZM191.542 237.459L191.542 237.459L192.976 236.065L192.975 236.064L191.542 237.459ZM198.106 229.623L191.558 236.048L192.959 237.475L199.507 231.051L198.106 229.623ZM198.71 166.182C216.062 183.868 215.792 212.271 198.106 229.623L199.507 231.051C217.981 212.925 218.263 183.255 200.138 164.781L198.71 166.182ZM135.269 165.578C152.955 148.226 181.358 148.497 198.71 166.182L200.138 164.781C182.012 146.308 152.342 146.025 133.868 164.151L135.269 165.578ZM128.721 172.003L135.269 165.578L133.868 164.151L127.32 170.575L128.721 172.003ZM120.884 165.443L127.307 171.989L128.734 170.589L122.312 164.042L120.884 165.443ZM57.443 164.839C75.1285 147.487 103.532 147.758 120.884 165.443L122.312 164.042C104.186 145.568 74.5162 145.286 56.0423 163.412L57.443 164.839ZM56.8392 228.28C39.4872 210.595 39.7575 182.191 57.443 164.839L56.0423 163.412C37.5684 181.537 37.286 211.207 55.4116 229.681L56.8392 228.28Z" fill="white" mask="url(#path-5-inside-1_132_72)"/>
<mask id="path-7-inside-2_132_72" fill="white">
<path fill-rule="evenodd" clip-rule="evenodd" d="M78.2896 228.191L128.301 279.164L174.64 233.699L174.639 233.698L179.274 229.151C192.07 216.597 192.265 196.046 179.71 183.25C167.156 170.454 146.605 170.258 133.809 182.813L129.174 187.36L124.628 182.726C112.074 169.93 91.5226 169.735 78.7265 182.29C65.9304 194.844 65.7348 215.395 78.2896 228.191Z"/>
</mask>
<path d="M128.301 279.164L127.587 279.864L128.288 280.578L129.001 279.878L128.301 279.164ZM78.2896 228.191L79.0034 227.491H79.0034L78.2896 228.191ZM174.64 233.699L175.34 234.413L176.056 233.71L175.351 232.997L174.64 233.699ZM174.639 233.698L173.939 232.985L173.223 233.687L173.927 234.401L174.639 233.698ZM179.274 229.151L178.573 228.438L179.274 229.151ZM179.71 183.25L180.424 182.549L179.71 183.25ZM133.809 182.813L133.108 182.099L133.809 182.813ZM129.174 187.36L128.46 188.06L129.161 188.774L129.875 188.074L129.174 187.36ZM124.628 182.726L123.914 183.427L124.628 182.726ZM78.7265 182.29L78.0262 181.576L78.7265 182.29ZM129.015 278.464L79.0034 227.491L77.5758 228.892L127.587 279.864L129.015 278.464ZM173.939 232.985L127.601 278.45L129.001 279.878L175.34 234.413L173.939 232.985ZM173.927 234.401L173.928 234.402L175.351 232.997L175.351 232.996L173.927 234.401ZM178.573 228.438L173.939 232.985L175.339 234.412L179.974 229.865L178.573 228.438ZM178.997 183.95C191.165 196.352 190.975 216.27 178.573 228.438L179.974 229.865C193.164 216.924 193.366 195.74 180.424 182.549L178.997 183.95ZM134.509 183.526C146.911 171.359 166.829 171.548 178.997 183.95L180.424 182.549C167.483 169.359 146.299 169.157 133.108 182.099L134.509 183.526ZM129.875 188.074L134.509 183.526L133.108 182.099L128.474 186.646L129.875 188.074ZM123.914 183.427L128.46 188.06L129.888 186.659L125.342 182.026L123.914 183.427ZM79.4269 183.003C91.8287 170.835 111.746 171.025 123.914 183.427L125.342 182.026C112.401 168.836 91.2165 168.634 78.0262 181.576L79.4269 183.003ZM79.0034 227.491C66.8354 215.089 67.025 195.171 79.4269 183.003L78.0262 181.576C64.8359 194.517 64.6342 215.701 77.5758 228.892L79.0034 227.491Z" fill="white" mask="url(#path-7-inside-2_132_72)"/>
<line x1="127.5" y1="50.0384" x2="127.5" y2="37" stroke="white"/>
<line x1="127.5" y1="127.038" x2="127.5" y2="114" stroke="white"/>
<line x1="127.5" y1="98" x2="127.5" y2="57" stroke="white"/>
<line x1="127.5" y1="184" x2="127.5" y2="143" stroke="white"/>
<line x1="127.5" y1="241.038" x2="127.5" y2="228" stroke="white"/>
<line x1="127.5" y1="218" x2="127.5" y2="191" stroke="white"/>
<line x1="127.5" y1="318.038" x2="127.5" y2="305" stroke="white"/>
<line x1="127.5" y1="289" x2="127.5" y2="248" stroke="white"/>
<line x1="127.5" y1="375" x2="127.5" y2="334" stroke="white"/>
<defs>
<filter id="filter0_d_132_72" x="0" y="0" width="256.653" height="423" filterUnits="userSpaceOnUse" color-interpolation-filters="sRGB">
<feFlood flood-opacity="0" result="BackgroundImageFix"/>
<feColorMatrix in="SourceAlpha" type="matrix" values="0 0 0 0 0 0 0 0 0 0 0 0 0 0 0 0 0 0 127 0" result="hardAlpha"/>
<feOffset dy="4"/>
<feGaussianBlur stdDeviation="2"/>
<feComposite in2="hardAlpha" operator="out"/>
<feColorMatrix type="matrix" values="0 0 0 0 0 0 0 0 0 0 0 0 0 0 0 0 0 0 0.25 0"/>
<feBlend mode="normal" in2="BackgroundImageFix" result="effect1_dropShadow_132_72"/>
<feBlend mode="normal" in="SourceGraphic" in2="effect1_dropShadow_132_72" result="shape"/>
</filter>
<linearGradient id="paint0_linear_132_72" x1="128.327" y1="0" x2="128.327" y2="415" gradientUnits="userSpaceOnUse">
<stop stop-color="#73A2BD"/>
<stop offset="0.0001" stop-color="#8294BB" stop-opacity="0.905645"/>
<stop offset="1" stop-color="#C256B3" stop-opacity="0.49"/>
</linearGradient>
<linearGradient id="paint1_linear_132_72" x1="128.76" y1="16.4614" x2="128.76" y2="396.806" gradientUnits="userSpaceOnUse">
<stop stop-color="#73A2BD"/>
<stop offset="0.0001" stop-color="#8294BB" stop-opacity="0.905645"/>
<stop offset="1" stop-color="#C256B3" stop-opacity="0.49"/>
</linearGradient>
</defs>
</svg>
