<svg width="257" height="423" viewBox="0 0 257 423" fill="none" xmlns="http://www.w3.org/2000/svg">
<g filter="url(#filter0_d_151_216)">
<rect x="4" width="248.653" height="415" rx="20" fill="url(#paint0_linear_151_216)"/>
</g>
<rect x="24.4269" y="16.9614" width="208.666" height="379.344" stroke="black"/>
<line y1="-0.5" x2="210.86" y2="-0.5" transform="matrix(0.999994 -0.00352659 0.00289436 0.999996 23.2292 36.5959)" stroke="black"/>
<line y1="-0.5" x2="210.86" y2="-0.5" transform="matrix(0.999994 -0.00352659 0.00289436 0.999996 22.5662 375.488)" stroke="black"/>
<mask id="path-5-inside-1_151_216" fill="white">
<path fill-rule="evenodd" clip-rule="evenodd" d="M57.1254 227.98L127.787 300L193.259 235.762L193.258 235.761L199.806 229.337C217.886 211.598 218.163 182.561 200.424 164.482C182.685 146.402 153.648 146.126 135.569 163.865L129.021 170.289L122.598 163.743C104.859 145.663 75.8223 145.387 57.7427 163.125C39.663 180.864 39.3866 209.901 57.1254 227.98Z"/>
</mask>
<path d="M127.787 300L127.073 300.7L127.773 301.414L128.487 300.714L127.787 300ZM57.1254 227.98L57.8392 227.28L57.8392 227.28L57.1254 227.98ZM193.259 235.762L193.96 236.476L194.67 235.779L193.976 235.065L193.259 235.762ZM193.258 235.761L192.558 235.048L191.847 235.745L192.542 236.459L193.258 235.761ZM199.806 229.337L199.106 228.623L199.106 228.623L199.806 229.337ZM200.424 164.482L201.138 163.781L201.138 163.781L200.424 164.482ZM135.569 163.865L136.269 164.578L136.269 164.578L135.569 163.865ZM129.021 170.289L128.307 170.989L129.007 171.703L129.721 171.003L129.021 170.289ZM122.598 163.743L121.884 164.443L121.884 164.443L122.598 163.743ZM57.7427 163.125L58.443 163.839L58.443 163.839L57.7427 163.125ZM128.501 299.3L57.8392 227.28L56.4116 228.681L127.073 300.7L128.501 299.3ZM192.559 235.048L127.087 299.286L128.487 300.714L193.96 236.476L192.559 235.048ZM192.542 236.459L192.542 236.459L193.976 235.065L193.975 235.064L192.542 236.459ZM199.106 228.623L192.558 235.048L193.959 236.475L200.507 230.051L199.106 228.623ZM199.71 165.182C217.062 182.868 216.792 211.271 199.106 228.623L200.507 230.051C218.981 211.925 219.263 182.255 201.138 163.781L199.71 165.182ZM136.269 164.578C153.955 147.226 182.358 147.497 199.71 165.182L201.138 163.781C183.012 145.308 153.342 145.025 134.868 163.151L136.269 164.578ZM129.721 171.003L136.269 164.578L134.868 163.151L128.32 169.575L129.721 171.003ZM121.884 164.443L128.307 170.989L129.734 169.589L123.312 163.042L121.884 164.443ZM58.443 163.839C76.1285 146.487 104.532 146.758 121.884 164.443L123.312 163.042C105.186 144.568 75.5162 144.286 57.0423 162.412L58.443 163.839ZM57.8392 227.28C40.4872 209.595 40.7575 181.191 58.443 163.839L57.0423 162.412C38.5684 180.537 38.286 210.207 56.4116 228.681L57.8392 227.28Z" fill="black" mask="url(#path-5-inside-1_151_216)"/>
<mask id="path-7-inside-2_151_216" fill="white">
<path fill-rule="evenodd" clip-rule="evenodd" d="M79.2896 227.191L129.301 278.164L175.64 232.699L175.639 232.698L180.274 228.151C193.07 215.597 193.265 195.046 180.71 182.25C168.156 169.454 147.605 169.258 134.809 181.813L130.174 186.36L125.628 181.726C113.074 168.93 92.5226 168.735 79.7265 181.29C66.9304 193.844 66.7348 214.395 79.2896 227.191Z"/>
</mask>
<path d="M129.301 278.164L128.587 278.864L129.288 279.578L130.001 278.878L129.301 278.164ZM79.2896 227.191L80.0034 226.491L80.0034 226.491L79.2896 227.191ZM175.64 232.699L176.34 233.413L177.051 232.715L176.356 232.001L175.64 232.699ZM175.639 232.698L174.939 231.985L174.227 232.683L174.923 233.396L175.639 232.698ZM180.274 228.151L179.573 227.438L179.573 227.438L180.274 228.151ZM180.71 182.25L181.424 181.549L181.424 181.549L180.71 182.25ZM134.809 181.813L135.509 182.527L134.809 181.813ZM130.174 186.36L129.46 187.06L130.161 187.774L130.875 187.074L130.174 186.36ZM125.628 181.726L126.342 181.026L126.342 181.026L125.628 181.726ZM79.7265 181.29L79.0262 180.576L79.0262 180.576L79.7265 181.29ZM130.015 277.464L80.0034 226.491L78.5758 227.892L128.587 278.864L130.015 277.464ZM174.939 231.985L128.601 277.45L130.001 278.878L176.34 233.413L174.939 231.985ZM174.923 233.396L174.923 233.397L176.356 232.001L176.355 232.001L174.923 233.396ZM179.573 227.438L174.939 231.985L176.339 233.412L180.974 228.865L179.573 227.438ZM179.997 182.95C192.165 195.352 191.975 215.27 179.573 227.438L180.974 228.865C194.164 215.924 194.366 194.74 181.424 181.549L179.997 182.95ZM135.509 182.527C147.911 170.359 167.829 170.548 179.997 182.95L181.424 181.549C168.483 168.359 147.299 168.157 134.108 181.099L135.509 182.527ZM130.875 187.074L135.509 182.527L134.108 181.099L129.474 185.646L130.875 187.074ZM124.914 182.427L129.46 187.06L130.888 185.659L126.342 181.026L124.914 182.427ZM80.4269 182.003C92.8287 169.835 112.746 170.025 124.914 182.427L126.342 181.026C113.401 167.836 92.2165 167.634 79.0262 180.576L80.4269 182.003ZM80.0034 226.491C67.8354 214.089 68.025 194.171 80.4269 182.003L79.0262 180.576C65.8359 193.517 65.6342 214.701 78.5758 227.892L80.0034 226.491Z" fill="black" mask="url(#path-7-inside-2_151_216)"/>
<line x1="128.5" y1="49.0383" x2="128.5" y2="35.9999" stroke="black"/>
<line x1="128.5" y1="126.038" x2="128.5" y2="113" stroke="black"/>
<line x1="128.5" y1="97" x2="128.5" y2="56" stroke="black"/>
<line x1="128.5" y1="183" x2="128.5" y2="142" stroke="black"/>
<line x1="128.5" y1="240.038" x2="128.5" y2="227" stroke="black"/>
<line x1="128.5" y1="217" x2="128.5" y2="190" stroke="black"/>
<line x1="128.5" y1="317.038" x2="128.5" y2="304" stroke="black"/>
<line x1="128.5" y1="288" x2="128.5" y2="247" stroke="black"/>
<line x1="128.5" y1="374" x2="128.5" y2="333" stroke="black"/>
<defs>
<filter id="filter0_d_151_216" x="0" y="0" width="256.653" height="423" filterUnits="userSpaceOnUse" color-interpolation-filters="sRGB">
<feFlood flood-opacity="0" result="BackgroundImageFix"/>
<feColorMatrix in="SourceAlpha" type="matrix" values="0 0 0 0 0 0 0 0 0 0 0 0 0 0 0 0 0 0 127 0" result="hardAlpha"/>
<feOffset dy="4"/>
<feGaussianBlur stdDeviation="2"/>
<feComposite in2="hardAlpha" operator="out"/>
<feColorMatrix type="matrix" values="0 0 0 0 0 0 0 0 0 0 0 0 0 0 0 0 0 0 0.25 0"/>
<feBlend mode="normal" in2="BackgroundImageFix" result="effect1_dropShadow_151_216"/>
<feBlend mode="normal" in="SourceGraphic" in2="effect1_dropShadow_151_216" result="shape"/>
</filter>
<linearGradient id="paint0_linear_151_216" x1="128.327" y1="0" x2="128.327" y2="415" gradientUnits="userSpaceOnUse">
<stop stop-color="#F0EED7"/>
<stop offset="1" stop-color="#B5995E"/>
</linearGradient>
</defs>
</svg>
