<svg width="517" height="650" viewBox="0 0 517 650" fill="none" xmlns="http://www.w3.org/2000/svg">
<path d="M137 329.248H402V558.248H137V329.248Z" fill="url(#paint0_linear_242_28)"/>
<path d="M469 431.748C469 457.176 473.191 514.272 464 533.748C449.035 565.458 409.397 558.248 381 558.248C335.16 558.248 298 504.074 298 437.248C298 370.422 329.66 311.748 375.5 311.748C421.339 311.748 469 364.922 469 431.748Z" fill="url(#paint1_linear_242_28)"/>
<path d="M61.9205 431.149C61.9205 456.556 57.8745 513.604 66.7476 533.064C81.1938 564.748 119.46 557.544 146.874 557.544C191.126 557.544 227 503.415 227 436.644C227 369.873 196.436 311.248 152.183 311.248C107.931 311.248 61.9205 364.378 61.9205 431.149Z" fill="url(#paint2_linear_242_28)"/>
<path d="M148 305.248C148 294.202 156.954 285.248 168 285.248H361C372.046 285.248 381 294.202 381 305.248V318.248C381 329.294 372.046 338.248 361 338.248H168C156.954 338.248 148 329.294 148 318.248V305.248Z" fill="url(#paint3_linear_242_28)"/>
<circle cx="264" cy="178.248" r="123" fill="url(#paint4_radial_242_28)"/>
<path fill-rule="evenodd" clip-rule="evenodd" d="M189.67 431.466L263.265 506.475L331.455 439.57L331.455 439.57L338.274 432.878C357.105 414.403 357.392 384.161 338.917 365.331C320.442 346.501 290.2 346.213 271.37 364.688L264.55 371.379L257.861 364.561C239.385 345.731 209.143 345.443 190.313 363.918C171.483 382.393 171.195 412.635 189.67 431.466Z" fill="url(#paint5_linear_242_28)"/>
<defs>
<linearGradient id="paint0_linear_242_28" x1="88" y1="517.248" x2="492" y2="332.248" gradientUnits="userSpaceOnUse">
<stop offset="0.361417" stop-color="#8812AF"/>
<stop offset="1" stop-color="#F9B219"/>
</linearGradient>
<linearGradient id="paint1_linear_242_28" x1="88" y1="517.248" x2="492" y2="332.248" gradientUnits="userSpaceOnUse">
<stop offset="0.361417" stop-color="#8812AF"/>
<stop offset="1" stop-color="#F9B219"/>
</linearGradient>
<linearGradient id="paint2_linear_242_28" x1="88" y1="517.248" x2="492" y2="332.248" gradientUnits="userSpaceOnUse">
<stop offset="0.361417" stop-color="#8812AF"/>
<stop offset="1" stop-color="#F9B219"/>
</linearGradient>
<linearGradient id="paint3_linear_242_28" x1="318" y1="382.748" x2="342" y2="210.248" gradientUnits="userSpaceOnUse">
<stop offset="0.361417" stop-color="#8812AF"/>
<stop offset="1" stop-color="#F9B219"/>
</linearGradient>
<radialGradient id="paint4_radial_242_28" cx="0" cy="0" r="1" gradientUnits="userSpaceOnUse" gradientTransform="translate(235.5 211.748) rotate(-34.2684) scale(233.541)">
<stop offset="0.361417" stop-color="#8812AF"/>
<stop offset="1" stop-color="#F9B219"/>
</radialGradient>
<linearGradient id="paint5_linear_242_28" x1="264.294" y1="350.248" x2="264.294" y2="506.475" gradientUnits="userSpaceOnUse">
<stop stop-color="#6C0C8C"/>
<stop offset="0.765" stop-color="#F9B219"/>
</linearGradient>
</defs>
</svg>
