<svg width="458" height="611" viewBox="0 0 458 611" fill="none" xmlns="http://www.w3.org/2000/svg">
<path d="M255.372 311.748C243.825 331.748 214.958 331.748 203.411 311.748L63.9807 70.248C52.4337 50.248 66.8675 25.248 89.9615 25.248L368.822 25.248C391.916 25.248 406.349 50.248 394.802 70.248L255.372 311.748Z" fill="url(#paint0_linear_242_91)"/>
<rect y="0.248047" width="458" height="77" rx="20" fill="url(#paint1_linear_242_91)"/>
<path d="M255.372 299.248C243.825 279.248 214.958 279.248 203.411 299.248L63.9807 540.748C52.4337 560.748 66.8675 585.748 89.9615 585.748H368.822C391.916 585.748 406.349 560.748 394.802 540.748L255.372 299.248Z" fill="url(#paint2_linear_242_91)"/>
<rect width="458" height="77" rx="20" transform="matrix(1 0 0 -1 0 610.748)" fill="url(#paint3_linear_242_91)"/>
<defs>
<linearGradient id="paint0_linear_242_91" x1="229.392" y1="356.748" x2="229.392" y2="25.248" gradientUnits="userSpaceOnUse">
<stop stop-color="#CDBF93" stop-opacity="0.8"/>
<stop offset="1" stop-color="#CB971D" stop-opacity="0.8"/>
</linearGradient>
<linearGradient id="paint1_linear_242_91" x1="229" y1="0.248047" x2="229" y2="77.248" gradientUnits="userSpaceOnUse">
<stop stop-color="#CDBF93" stop-opacity="0.8"/>
<stop offset="1" stop-color="#CB971D" stop-opacity="0.8"/>
</linearGradient>
<linearGradient id="paint2_linear_242_91" x1="229.392" y1="254.248" x2="229.392" y2="585.748" gradientUnits="userSpaceOnUse">
<stop stop-color="#CDBF93" stop-opacity="0.8"/>
<stop offset="1" stop-color="#CB971D" stop-opacity="0.8"/>
</linearGradient>
<linearGradient id="paint3_linear_242_91" x1="229" y1="0" x2="229" y2="77" gradientUnits="userSpaceOnUse">
<stop stop-color="#CDBF93" stop-opacity="0.8"/>
<stop offset="1" stop-color="#CB971D" stop-opacity="0.8"/>
</linearGradient>
</defs>
</svg>
