<svg width="656" height="702" viewBox="0 0 656 702" fill="none" xmlns="http://www.w3.org/2000/svg">
<rect x="540" y="35" width="100" height="50" fill="url(#paint0_linear_193_8)"/>
<rect x="17" y="35" width="100" height="50" fill="url(#paint1_linear_193_8)"/>
<rect x="17" y="615" width="100" height="50" fill="url(#paint2_linear_193_8)"/>
<circle cx="639.5" cy="639.5" r="16.5" fill="url(#paint3_linear_193_8)"/>
<circle cx="16.5" cy="59.5" r="16.5" fill="url(#paint4_linear_193_8)"/>
<circle cx="639.5" cy="59.5" r="16.5" fill="url(#paint5_linear_193_8)"/>
<rect x="125" y="114" width="415" height="515" fill="url(#paint6_linear_193_8)"/>
<rect x="540" y="615" width="100" height="50" fill="url(#paint7_linear_193_8)"/>
<circle cx="20.5" cy="639.5" r="16.5" fill="url(#paint8_linear_193_8)"/>
<path d="M28.5 59.5C28.5 26.9152 54.9152 0.5 87.5 0.5H570.5C603.085 0.5 629.5 26.9152 629.5 59.5C629.5 92.0848 603.085 118.5 570.5 118.5H87.5C54.9152 118.5 28.5 92.0848 28.5 59.5Z" fill="url(#paint9_linear_193_8)"/>
<path d="M28.5 59.5C28.5 26.9152 54.9152 0.5 87.5 0.5H570.5C603.085 0.5 629.5 26.9152 629.5 59.5C629.5 92.0848 603.085 118.5 570.5 118.5H87.5C54.9152 118.5 28.5 92.0848 28.5 59.5Z" fill="url(#paint10_linear_193_8)"/>
<path d="M29 643C29 610.415 55.4152 584 88 584H571C603.585 584 630 610.415 630 643C630 675.585 603.585 702 571 702H88C55.4152 702 29 675.585 29 643Z" fill="url(#paint11_linear_193_8)"/>
<path d="M29 643C29 610.415 55.4152 584 88 584H571C603.585 584 630 610.415 630 643C630 675.585 603.585 702 571 702H88C55.4152 702 29 675.585 29 643Z" fill="url(#paint12_linear_193_8)"/>
<defs>
<linearGradient id="paint0_linear_193_8" x1="590" y1="35" x2="590" y2="85" gradientUnits="userSpaceOnUse">
<stop stop-color="#73A2BD"/>
<stop offset="0.0001" stop-color="#8294BB" stop-opacity="0.905645"/>
<stop offset="1" stop-color="#C256B3" stop-opacity="0.49"/>
</linearGradient>
<linearGradient id="paint1_linear_193_8" x1="67" y1="35" x2="67" y2="85" gradientUnits="userSpaceOnUse">
<stop stop-color="#73A2BD"/>
<stop offset="0.0001" stop-color="#8294BB" stop-opacity="0.905645"/>
<stop offset="1" stop-color="#C256B3" stop-opacity="0.49"/>
</linearGradient>
<linearGradient id="paint2_linear_193_8" x1="67" y1="615" x2="67" y2="665" gradientUnits="userSpaceOnUse">
<stop stop-color="#73A2BD"/>
<stop offset="0.0001" stop-color="#8294BB" stop-opacity="0.905645"/>
<stop offset="1" stop-color="#C256B3" stop-opacity="0.49"/>
</linearGradient>
<linearGradient id="paint3_linear_193_8" x1="639.5" y1="623" x2="639.5" y2="656" gradientUnits="userSpaceOnUse">
<stop stop-color="#73A2BD"/>
<stop offset="0.0001" stop-color="#8294BB" stop-opacity="0.905645"/>
<stop offset="1" stop-color="#C256B3" stop-opacity="0.49"/>
</linearGradient>
<linearGradient id="paint4_linear_193_8" x1="16.5" y1="43" x2="16.5" y2="76" gradientUnits="userSpaceOnUse">
<stop stop-color="#73A2BD"/>
<stop offset="0.0001" stop-color="#8294BB" stop-opacity="0.905645"/>
<stop offset="1" stop-color="#C256B3" stop-opacity="0.49"/>
</linearGradient>
<linearGradient id="paint5_linear_193_8" x1="639.5" y1="43" x2="639.5" y2="76" gradientUnits="userSpaceOnUse">
<stop stop-color="#73A2BD"/>
<stop offset="0.0001" stop-color="#8294BB" stop-opacity="0.905645"/>
<stop offset="1" stop-color="#C256B3" stop-opacity="0.49"/>
</linearGradient>
<linearGradient id="paint6_linear_193_8" x1="332.5" y1="114" x2="332.5" y2="629" gradientUnits="userSpaceOnUse">
<stop stop-color="#73A2BD"/>
<stop offset="0.0001" stop-color="#8294BB" stop-opacity="0.905645"/>
<stop offset="1" stop-color="#C256B3" stop-opacity="0.49"/>
</linearGradient>
<linearGradient id="paint7_linear_193_8" x1="590" y1="615" x2="590" y2="665" gradientUnits="userSpaceOnUse">
<stop stop-color="#73A2BD"/>
<stop offset="0.0001" stop-color="#8294BB" stop-opacity="0.905645"/>
<stop offset="1" stop-color="#C256B3" stop-opacity="0.49"/>
</linearGradient>
<linearGradient id="paint8_linear_193_8" x1="20.5" y1="623" x2="20.5" y2="656" gradientUnits="userSpaceOnUse">
<stop stop-color="#73A2BD"/>
<stop offset="0.0001" stop-color="#8294BB" stop-opacity="0.905645"/>
<stop offset="1" stop-color="#C256B3" stop-opacity="0.49"/>
</linearGradient>
<linearGradient id="paint9_linear_193_8" x1="329" y1="0.5" x2="329" y2="118.5" gradientUnits="userSpaceOnUse">
<stop stop-color="#73A2BD"/>
<stop offset="0.0001" stop-color="#8294BB" stop-opacity="0.905645"/>
<stop offset="1" stop-color="#C256B3" stop-opacity="0.49"/>
</linearGradient>
<linearGradient id="paint10_linear_193_8" x1="329" y1="0.5" x2="329" y2="118.5" gradientUnits="userSpaceOnUse">
<stop stop-color="#73A2BD"/>
<stop offset="0.0001" stop-color="#8294BB" stop-opacity="0.905645"/>
<stop offset="1" stop-color="#C256B3" stop-opacity="0.49"/>
</linearGradient>
<linearGradient id="paint11_linear_193_8" x1="329.5" y1="584" x2="329.5" y2="702" gradientUnits="userSpaceOnUse">
<stop stop-color="#73A2BD"/>
<stop offset="0.0001" stop-color="#8294BB" stop-opacity="0.905645"/>
<stop offset="1" stop-color="#C256B3" stop-opacity="0.49"/>
</linearGradient>
<linearGradient id="paint12_linear_193_8" x1="329.5" y1="584" x2="329.5" y2="702" gradientUnits="userSpaceOnUse">
<stop stop-color="#73A2BD"/>
<stop offset="0.0001" stop-color="#8294BB" stop-opacity="0.905645"/>
<stop offset="1" stop-color="#C256B3" stop-opacity="0.49"/>
</linearGradient>
</defs>
</svg>
