<svg width="288" height="464" viewBox="0 0 288 464" fill="none" xmlns="http://www.w3.org/2000/svg">
<g filter="url(#filter0_d_229_182)">
<rect x="4" width="280" height="456" rx="20" fill="url(#paint0_linear_229_182)"/>
</g>
<rect x="26.939" y="18.5876" width="235.098" height="416.921" fill="url(#paint1_linear_229_182)" stroke="white"/>
<line y1="-0.5" x2="237.442" y2="-0.5" transform="matrix(0.999994 -0.00344119 0.00296619 0.999996 25.6534 40.2117)" stroke="white"/>
<line y1="-0.5" x2="237.442" y2="-0.5" transform="matrix(0.999994 -0.00344119 0.00296619 0.999996 24.9067 412.584)" stroke="white"/>
<path d="M126.422 84.3789V412H164.645V84.3789" stroke="white"/>
<path d="M164.768 86.0105L145.533 40L126.298 86.0105" stroke="white"/>
<rect x="82.5" y="317.216" width="124" height="17.2737" stroke="white"/>
<line y1="-0.5" x2="276.718" y2="-0.5" transform="matrix(-0.00384126 0.999993 -0.999981 -0.00613219 145.046 40)" stroke="white"/>
<defs>
<filter id="filter0_d_229_182" x="0" y="0" width="288" height="464" filterUnits="userSpaceOnUse" color-interpolation-filters="sRGB">
<feFlood flood-opacity="0" result="BackgroundImageFix"/>
<feColorMatrix in="SourceAlpha" type="matrix" values="0 0 0 0 0 0 0 0 0 0 0 0 0 0 0 0 0 0 127 0" result="hardAlpha"/>
<feOffset dy="4"/>
<feGaussianBlur stdDeviation="2"/>
<feComposite in2="hardAlpha" operator="out"/>
<feColorMatrix type="matrix" values="0 0 0 0 0 0 0 0 0 0 0 0 0 0 0 0 0 0 0.25 0"/>
<feBlend mode="normal" in2="BackgroundImageFix" result="effect1_dropShadow_229_182"/>
<feBlend mode="normal" in="SourceGraphic" in2="effect1_dropShadow_229_182" result="shape"/>
</filter>
<linearGradient id="paint0_linear_229_182" x1="144" y1="0" x2="144" y2="456" gradientUnits="userSpaceOnUse">
<stop offset="0.620038" stop-color="#2A0B5C"/>
<stop offset="1" stop-color="#5917C2"/>
</linearGradient>
<linearGradient id="paint1_linear_229_182" x1="144.488" y1="18.0876" x2="144.488" y2="436.008" gradientUnits="userSpaceOnUse">
<stop stop-color="#190737"/>
<stop offset="1" stop-color="#46149D"/>
</linearGradient>
</defs>
</svg>
